<svg width="472" height="336" viewBox="0 0 472 336" fill="none" xmlns="http://www.w3.org/2000/svg">
<mask id="mask0" mask-type="alpha" maskUnits="userSpaceOnUse" x="0" y="0" width="472" height="336">
<path d="M303 336L0 336L0 0L303 0L472 168L303 336Z" fill="#C4C4C4"/>
</mask>
<g mask="url(#mask0)">
<rect width="452" height="16" transform="matrix(-1 0 0 1 362 280)" fill="#5EBBFF"/>
<rect width="412" height="16" transform="matrix(-1 0 0 1 322 320)" fill="#5EBBFF"/>
<rect width="532" height="16" transform="matrix(-1 0 0 1 442 200)" fill="#5EBBFF"/>
<rect width="492" height="16" transform="matrix(-1 0 0 1 402 240)" fill="#5EBBFF"/>
<rect width="532" height="16" transform="matrix(-1 0 0 1 442 120)" fill="#5EBBFF"/>
<rect width="572" height="16" transform="matrix(-1 0 0 1 482 160)" fill="#5EBBFF"/>
<rect width="452" height="16" transform="matrix(-1 0 0 1 362 40)" fill="#5EBBFF"/>
<rect width="412" height="16" transform="matrix(-1 0 0 1 322 0)" fill="#5EBBFF"/>
<rect width="492" height="16" transform="matrix(-1 0 0 1 402 80)" fill="#5EBBFF"/>
</g>
</svg>
