<svg width="472" height="336" viewBox="0 0 472 336" fill="none" xmlns="http://www.w3.org/2000/svg">
<mask id="mask0" mask-type="alpha" maskUnits="userSpaceOnUse" x="0" y="0" width="472" height="336">
<path d="M169 0H472V336H169L0 168L169 0Z" fill="#C4C4C4"/>
</mask>
<g mask="url(#mask0)">
<rect width="452" height="16" transform="matrix(1 0 0 -1 110 56)" fill="#9D9BFF"/>
<rect width="412" height="16" transform="matrix(1 0 0 -1 150 16)" fill="#9D9BFF"/>
<rect width="532" height="16" transform="matrix(1 0 0 -1 30 136)" fill="#9D9BFF"/>
<rect width="492" height="16" transform="matrix(1 0 0 -1 70 96)" fill="#9D9BFF"/>
<rect width="532" height="16" transform="matrix(1 0 0 -1 30 216)" fill="#9D9BFF"/>
<rect width="572" height="16" transform="matrix(1 0 0 -1 -10 176)" fill="#9D9BFF"/>
<rect width="452" height="16" transform="matrix(1 0 0 -1 110 296)" fill="#9D9BFF"/>
<rect width="412" height="16" transform="matrix(1 0 0 -1 150 336)" fill="#9D9BFF"/>
<rect width="492" height="16" transform="matrix(1 0 0 -1 70 256)" fill="#9D9BFF"/>
</g>
</svg>
